<mxfile host="Electron" modified="2025-03-18T00:10:31.696Z" agent="Mozilla/5.0 (Windows NT 10.0; Win64; x64) AppleWebKit/537.36 (KHTML, like Gecko) draw.io/24.0.4 Chrome/120.0.6099.109 Electron/28.1.0 Safari/537.36" etag="ZjvkgzzCY0ibR7CsHcpF" version="24.0.4" type="device">
  <diagram name="Página-1" id="E7C_g593NAjTBoY_xXJE">
    <mxGraphModel dx="1592" dy="456" grid="1" gridSize="10" guides="1" tooltips="1" connect="1" arrows="1" fold="1" page="1" pageScale="1" pageWidth="827" pageHeight="1169" math="0" shadow="0">
      <root>
        <mxCell id="0" />
        <mxCell id="1" parent="0" />
        <mxCell id="ytaTYeRnR0zXQQnVozX_-1" value="MedioDeComunicacion" style="swimlane;fontStyle=1;align=center;verticalAlign=top;childLayout=stackLayout;horizontal=1;startSize=26;horizontalStack=0;resizeParent=1;resizeParentMax=0;resizeLast=0;collapsible=1;marginBottom=0;whiteSpace=wrap;html=1;" vertex="1" parent="1">
          <mxGeometry x="10" y="210" width="230" height="180" as="geometry" />
        </mxCell>
        <mxCell id="ytaTYeRnR0zXQQnVozX_-2" value="-nombreC: cadena&lt;div&gt;-cantidad de audiencia: entero&lt;/div&gt;&lt;div&gt;-programacion: cadena&lt;/div&gt;&lt;div&gt;-pais=&quot;Argentina&quot;&lt;/div&gt;" style="text;strokeColor=none;fillColor=none;align=left;verticalAlign=top;spacingLeft=4;spacingRight=4;overflow=hidden;rotatable=0;points=[[0,0.5],[1,0.5]];portConstraint=eastwest;whiteSpace=wrap;html=1;" vertex="1" parent="ytaTYeRnR0zXQQnVozX_-1">
          <mxGeometry y="26" width="230" height="64" as="geometry" />
        </mxCell>
        <mxCell id="ytaTYeRnR0zXQQnVozX_-3" value="" style="line;strokeWidth=1;fillColor=none;align=left;verticalAlign=middle;spacingTop=-1;spacingLeft=3;spacingRight=3;rotatable=0;labelPosition=right;points=[];portConstraint=eastwest;strokeColor=inherit;" vertex="1" parent="ytaTYeRnR0zXQQnVozX_-1">
          <mxGeometry y="90" width="230" height="8" as="geometry" />
        </mxCell>
        <mxCell id="ytaTYeRnR0zXQQnVozX_-4" value="+crearMedioComunicacion()&lt;div&gt;+mostrarNombre()&lt;br&gt;&lt;div&gt;+mostrarAudiencia()&lt;/div&gt;&lt;/div&gt;&lt;div&gt;+mostrarProgramacion()&lt;/div&gt;&lt;div&gt;+actualizarAudiencia(nueva_audiencia)&lt;/div&gt;" style="text;strokeColor=none;fillColor=none;align=left;verticalAlign=top;spacingLeft=4;spacingRight=4;overflow=hidden;rotatable=0;points=[[0,0.5],[1,0.5]];portConstraint=eastwest;whiteSpace=wrap;html=1;" vertex="1" parent="ytaTYeRnR0zXQQnVozX_-1">
          <mxGeometry y="98" width="230" height="82" as="geometry" />
        </mxCell>
        <mxCell id="ytaTYeRnR0zXQQnVozX_-6" value="&lt;b&gt;&lt;font style=&quot;font-size: 16px;&quot;&gt;Narrativa 1&lt;/font&gt;&lt;/b&gt;&lt;br&gt;Un ente regulador de medios de comunicación requiere el desarrollo de una aplicación de gestión de medios de comunicación. De los medios de&lt;br&gt;comunicación se registra: nombre, audiencia estimada (cantidad de personas) y su programación (los programas que tiene). Un programa tiene un nombre, un horario de inicio y un horario de finalización." style="text;whiteSpace=wrap;html=1;" vertex="1" parent="1">
          <mxGeometry x="14" y="100" width="800" height="80" as="geometry" />
        </mxCell>
        <mxCell id="ytaTYeRnR0zXQQnVozX_-7" value="&lt;b&gt;&lt;font style=&quot;font-size: 16px;&quot;&gt;Narrativa 2&lt;/font&gt;&lt;/b&gt;&lt;br&gt;Una empresa de logística desea implementar una aplicación para gestionar el alquiler de sus vehículos de la marca FIAT. De los vehículos gestionados por la empresa se tienen en cuenta los siguientes atributos: matrícula, modelo, costo por kilómetro y cantidad de días de alquiler. Cada vehículo puede recorrer una o varias rutas. Una ruta incluye la siguiente información: un código único, un destino y la distancia total (en kilómetros).&lt;br&gt;&lt;u style=&quot;&quot;&gt;Funcionalidad 1:&lt;/u&gt; Dado un código de ruta ingresado por teclado, indicar la distancia total.&lt;br&gt;&lt;u style=&quot;&quot;&gt;Funcionalidad 2:&lt;/u&gt; Dado el modelo de un vehículo ingresado por teclado, indicar la cantidad de vehículo que tiene la empresa de dicho modelo." style="text;whiteSpace=wrap;html=1;" vertex="1" parent="1">
          <mxGeometry x="14" y="590" width="796" height="100" as="geometry" />
        </mxCell>
        <mxCell id="ytaTYeRnR0zXQQnVozX_-8" value="&lt;b&gt;&lt;font style=&quot;font-size: 16px;&quot;&gt;Narrativa 3&lt;/font&gt;&lt;/b&gt;&lt;br&gt;Un zoológico necesita un sistema para gestionar a sus animales y sus cuidadores. De cada animal se conoce nombre, especie y edad. De los&lt;br&gt;cuidadores se registra nombre y turno de trabajo. Además, hay hábitats, y cada uno tiene nombre, temperatura controlada, tipo de ambiente (selva, desierto, acuático) y capacidad máxima de animales.&lt;br&gt;&lt;u&gt;Funcionalidad 1:&lt;/u&gt; Dado un tipo de ambiente, mostrar su capacidad máxima de animales.&lt;br&gt;&lt;u&gt;Funcionalidad 2:&lt;/u&gt; Dado el nombre de una especie, mostrar el/los nombre/s de los animales que corresponden a dicha especie." style="text;whiteSpace=wrap;html=1;" vertex="1" parent="1">
          <mxGeometry x="14" y="1520" width="790" height="100" as="geometry" />
        </mxCell>
        <mxCell id="ytaTYeRnR0zXQQnVozX_-9" value="&lt;b&gt;&lt;font style=&quot;font-size: 14px;&quot;&gt;Dada las siguientes narrativas se pide:&lt;/font&gt;&lt;/b&gt;&lt;br&gt; Identificar las clases que intervienen en cada narrativa y diseñarlas usando UML.&lt;br&gt; Mencionar e indicar los componentes (atributos y comportamientos) de cada una de las clases identificadas.&lt;br&gt; Representar en UML dos objetos de cada una de las clases diseñadas.&lt;br&gt; Identificar variables de clases y de instancias donde corresponda.&lt;br&gt; Dada una funcionalidad, realizar el Diagrama de Comunicación y el Diagrama de Secuencia." style="text;whiteSpace=wrap;html=1;" vertex="1" parent="1">
          <mxGeometry x="19" width="790" height="100" as="geometry" />
        </mxCell>
        <mxCell id="ytaTYeRnR0zXQQnVozX_-10" value="Programa" style="swimlane;fontStyle=1;align=center;verticalAlign=top;childLayout=stackLayout;horizontal=1;startSize=26;horizontalStack=0;resizeParent=1;resizeParentMax=0;resizeLast=0;collapsible=1;marginBottom=0;whiteSpace=wrap;html=1;" vertex="1" parent="1">
          <mxGeometry x="520" y="206" width="250" height="170" as="geometry" />
        </mxCell>
        <mxCell id="ytaTYeRnR0zXQQnVozX_-11" value="-nombreP: cadena&lt;div&gt;-horario inicio: cadena&lt;/div&gt;&lt;div&gt;-horario fin: cadena&lt;/div&gt;" style="text;strokeColor=none;fillColor=none;align=left;verticalAlign=top;spacingLeft=4;spacingRight=4;overflow=hidden;rotatable=0;points=[[0,0.5],[1,0.5]];portConstraint=eastwest;whiteSpace=wrap;html=1;" vertex="1" parent="ytaTYeRnR0zXQQnVozX_-10">
          <mxGeometry y="26" width="250" height="54" as="geometry" />
        </mxCell>
        <mxCell id="ytaTYeRnR0zXQQnVozX_-12" value="" style="line;strokeWidth=1;fillColor=none;align=left;verticalAlign=middle;spacingTop=-1;spacingLeft=3;spacingRight=3;rotatable=0;labelPosition=right;points=[];portConstraint=eastwest;strokeColor=inherit;" vertex="1" parent="ytaTYeRnR0zXQQnVozX_-10">
          <mxGeometry y="80" width="250" height="8" as="geometry" />
        </mxCell>
        <mxCell id="ytaTYeRnR0zXQQnVozX_-13" value="+crearPrograma()&lt;div&gt;+mostrarNombre()&lt;/div&gt;&lt;div&gt;+mostrarHorarioInicio()&lt;/div&gt;&lt;div&gt;+mostrarHorarioFin()&lt;br&gt;&lt;div&gt;+modificarHorario(horarioI,horarioF)&lt;/div&gt;&lt;/div&gt;" style="text;strokeColor=none;fillColor=none;align=left;verticalAlign=top;spacingLeft=4;spacingRight=4;overflow=hidden;rotatable=0;points=[[0,0.5],[1,0.5]];portConstraint=eastwest;whiteSpace=wrap;html=1;" vertex="1" parent="ytaTYeRnR0zXQQnVozX_-10">
          <mxGeometry y="88" width="250" height="82" as="geometry" />
        </mxCell>
        <mxCell id="ytaTYeRnR0zXQQnVozX_-14" value="&lt;u&gt;unMedio&lt;/u&gt;" style="swimlane;fontStyle=0;childLayout=stackLayout;horizontal=1;startSize=26;fillColor=none;horizontalStack=0;resizeParent=1;resizeParentMax=0;resizeLast=0;collapsible=1;marginBottom=0;whiteSpace=wrap;html=1;" vertex="1" parent="1">
          <mxGeometry x="-60" y="430" width="170" height="80" as="geometry" />
        </mxCell>
        <mxCell id="ytaTYeRnR0zXQQnVozX_-15" value="canal 8&lt;div&gt;74654&lt;/div&gt;&lt;div&gt;norteticerito del mediodia&lt;/div&gt;" style="text;strokeColor=none;fillColor=none;align=left;verticalAlign=top;spacingLeft=4;spacingRight=4;overflow=hidden;rotatable=0;points=[[0,0.5],[1,0.5]];portConstraint=eastwest;whiteSpace=wrap;html=1;" vertex="1" parent="ytaTYeRnR0zXQQnVozX_-14">
          <mxGeometry y="26" width="170" height="54" as="geometry" />
        </mxCell>
        <mxCell id="ytaTYeRnR0zXQQnVozX_-22" value="&lt;u&gt;otroMedio&lt;/u&gt;" style="swimlane;fontStyle=0;childLayout=stackLayout;horizontal=1;startSize=26;fillColor=none;horizontalStack=0;resizeParent=1;resizeParentMax=0;resizeLast=0;collapsible=1;marginBottom=0;whiteSpace=wrap;html=1;" vertex="1" parent="1">
          <mxGeometry x="120" y="430" width="140" height="80" as="geometry" />
        </mxCell>
        <mxCell id="ytaTYeRnR0zXQQnVozX_-23" value="telefe&lt;div&gt;454565&lt;/div&gt;&lt;div&gt;fatmagul&lt;/div&gt;" style="text;strokeColor=none;fillColor=none;align=left;verticalAlign=top;spacingLeft=4;spacingRight=4;overflow=hidden;rotatable=0;points=[[0,0.5],[1,0.5]];portConstraint=eastwest;whiteSpace=wrap;html=1;" vertex="1" parent="ytaTYeRnR0zXQQnVozX_-22">
          <mxGeometry y="26" width="140" height="54" as="geometry" />
        </mxCell>
        <mxCell id="ytaTYeRnR0zXQQnVozX_-31" value="" style="endArrow=classicThin;dashed=1;endFill=1;endSize=12;html=1;rounded=0;" edge="1" parent="1" source="ytaTYeRnR0zXQQnVozX_-1" target="ytaTYeRnR0zXQQnVozX_-14">
          <mxGeometry width="160" relative="1" as="geometry">
            <mxPoint x="200" y="240" as="sourcePoint" />
            <mxPoint x="360" y="240" as="targetPoint" />
          </mxGeometry>
        </mxCell>
        <mxCell id="ytaTYeRnR0zXQQnVozX_-32" value="" style="endArrow=classicThin;dashed=1;endFill=1;endSize=12;html=1;rounded=0;" edge="1" parent="1" source="ytaTYeRnR0zXQQnVozX_-1" target="ytaTYeRnR0zXQQnVozX_-22">
          <mxGeometry width="160" relative="1" as="geometry">
            <mxPoint x="81" y="362" as="sourcePoint" />
            <mxPoint x="55" y="400" as="targetPoint" />
          </mxGeometry>
        </mxCell>
        <mxCell id="ytaTYeRnR0zXQQnVozX_-35" value="" style="edgeStyle=orthogonalEdgeStyle;rounded=0;orthogonalLoop=1;jettySize=auto;fontColor=#c62424;strokeColor=#db2424;" edge="1" parent="1" source="ytaTYeRnR0zXQQnVozX_-33">
          <mxGeometry relative="1" as="geometry">
            <mxPoint y="295" as="targetPoint" />
          </mxGeometry>
        </mxCell>
        <mxCell id="ytaTYeRnR0zXQQnVozX_-33" value="VARIABLE DE CLASE" style="text;html=1;align=center;verticalAlign=middle;whiteSpace=wrap;rounded=0;fontColor=#d92020;fontSize=10;" vertex="1" parent="1">
          <mxGeometry x="-160" y="280" width="140" height="30" as="geometry" />
        </mxCell>
        <mxCell id="ytaTYeRnR0zXQQnVozX_-36" value="VARIABLES DE INSTANCIA" style="text;html=1;align=center;verticalAlign=middle;whiteSpace=wrap;rounded=0;fontColor=#d92020;fontSize=10;" vertex="1" parent="1">
          <mxGeometry x="250" y="255" width="140" height="30" as="geometry" />
        </mxCell>
        <mxCell id="ytaTYeRnR0zXQQnVozX_-38" value="" style="ellipse;whiteSpace=wrap;html=1;align=center;aspect=fixed;fillColor=none;strokeColor=none;resizable=0;perimeter=centerPerimeter;rotatable=0;allowArrows=0;points=[];outlineConnect=1;" vertex="1" parent="1">
          <mxGeometry x="270" y="290" width="10" height="10" as="geometry" />
        </mxCell>
        <mxCell id="ytaTYeRnR0zXQQnVozX_-39" value="" style="shape=requiredInterface;html=1;verticalLabelPosition=bottom;sketch=0;strokeColor=#e22828;" vertex="1" parent="1">
          <mxGeometry x="240" y="235" width="10" height="70" as="geometry" />
        </mxCell>
        <mxCell id="ytaTYeRnR0zXQQnVozX_-41" value="" style="ellipse;whiteSpace=wrap;html=1;align=center;aspect=fixed;fillColor=none;strokeColor=none;resizable=0;perimeter=centerPerimeter;rotatable=0;allowArrows=0;points=[];outlineConnect=1;" vertex="1" parent="1">
          <mxGeometry x="280" y="320" width="10" height="10" as="geometry" />
        </mxCell>
        <mxCell id="ytaTYeRnR0zXQQnVozX_-43" value="&lt;u&gt;unPrograma&lt;/u&gt;" style="swimlane;fontStyle=0;childLayout=stackLayout;horizontal=1;startSize=26;fillColor=none;horizontalStack=0;resizeParent=1;resizeParentMax=0;resizeLast=0;collapsible=1;marginBottom=0;whiteSpace=wrap;html=1;" vertex="1" parent="1">
          <mxGeometry x="480" y="410" width="170" height="80" as="geometry" />
        </mxCell>
        <mxCell id="ytaTYeRnR0zXQQnVozX_-44" value="&lt;div&gt;noticiero&lt;/div&gt;&lt;div&gt;8:00&lt;/div&gt;&lt;div&gt;13:00&lt;/div&gt;" style="text;strokeColor=none;fillColor=none;align=left;verticalAlign=top;spacingLeft=4;spacingRight=4;overflow=hidden;rotatable=0;points=[[0,0.5],[1,0.5]];portConstraint=eastwest;whiteSpace=wrap;html=1;" vertex="1" parent="ytaTYeRnR0zXQQnVozX_-43">
          <mxGeometry y="26" width="170" height="54" as="geometry" />
        </mxCell>
        <mxCell id="ytaTYeRnR0zXQQnVozX_-45" value="&lt;u&gt;otroPrograma&lt;/u&gt;" style="swimlane;fontStyle=0;childLayout=stackLayout;horizontal=1;startSize=26;fillColor=none;horizontalStack=0;resizeParent=1;resizeParentMax=0;resizeLast=0;collapsible=1;marginBottom=0;whiteSpace=wrap;html=1;" vertex="1" parent="1">
          <mxGeometry x="665" y="410" width="140" height="80" as="geometry" />
        </mxCell>
        <mxCell id="ytaTYeRnR0zXQQnVozX_-46" value="&lt;div&gt;fatmagul&lt;/div&gt;&lt;div&gt;14:00&lt;/div&gt;&lt;div&gt;16:00&lt;/div&gt;" style="text;strokeColor=none;fillColor=none;align=left;verticalAlign=top;spacingLeft=4;spacingRight=4;overflow=hidden;rotatable=0;points=[[0,0.5],[1,0.5]];portConstraint=eastwest;whiteSpace=wrap;html=1;" vertex="1" parent="ytaTYeRnR0zXQQnVozX_-45">
          <mxGeometry y="26" width="140" height="54" as="geometry" />
        </mxCell>
        <mxCell id="ytaTYeRnR0zXQQnVozX_-47" value="" style="endArrow=classicThin;dashed=1;endFill=1;endSize=12;html=1;rounded=0;" edge="1" parent="1" target="ytaTYeRnR0zXQQnVozX_-43" source="ytaTYeRnR0zXQQnVozX_-10">
          <mxGeometry width="160" relative="1" as="geometry">
            <mxPoint x="551" y="350" as="sourcePoint" />
            <mxPoint x="860" y="200" as="targetPoint" />
          </mxGeometry>
        </mxCell>
        <mxCell id="ytaTYeRnR0zXQQnVozX_-48" value="" style="endArrow=classicThin;dashed=1;endFill=1;endSize=12;html=1;rounded=0;" edge="1" parent="1" target="ytaTYeRnR0zXQQnVozX_-45" source="ytaTYeRnR0zXQQnVozX_-10">
          <mxGeometry width="160" relative="1" as="geometry">
            <mxPoint x="696" y="350" as="sourcePoint" />
            <mxPoint x="555" y="360" as="targetPoint" />
          </mxGeometry>
        </mxCell>
        <mxCell id="ytaTYeRnR0zXQQnVozX_-50" value="Un mensaje esta formado por &lt;font style=&quot;font-size: 15px;&quot;&gt;identidad del receptor.metodo a ejecutar(informacion adicional)&lt;/font&gt;&amp;nbsp;&lt;div&gt;&lt;span style=&quot;background-color: initial;&quot;&gt;&lt;u&gt;Ejemplo:&lt;/u&gt; &lt;/span&gt;&lt;font color=&quot;#ee2020&quot; style=&quot;background-color: initial;&quot;&gt;otroPrograma.modificarHorario(horarioI, horarioF)&lt;/font&gt;&lt;span style=&quot;background-color: initial;&quot;&gt;&amp;nbsp;&amp;nbsp;&lt;/span&gt;&lt;/div&gt;" style="text;align=left;fontStyle=1;verticalAlign=middle;spacingLeft=3;spacingRight=3;strokeColor=none;rotatable=0;points=[[0,0.5],[1,0.5]];portConstraint=eastwest;html=1;" vertex="1" parent="1">
          <mxGeometry x="350" y="520" width="80" height="26" as="geometry" />
        </mxCell>
        <mxCell id="ytaTYeRnR0zXQQnVozX_-51" value="VARIABLES DE INSTANCIA" style="text;html=1;align=center;verticalAlign=middle;whiteSpace=wrap;rounded=0;fontColor=#d92020;fontSize=10;" vertex="1" parent="1">
          <mxGeometry x="780" y="245" width="140" height="30" as="geometry" />
        </mxCell>
        <mxCell id="ytaTYeRnR0zXQQnVozX_-52" value="" style="ellipse;whiteSpace=wrap;html=1;align=center;aspect=fixed;fillColor=none;strokeColor=none;resizable=0;perimeter=centerPerimeter;rotatable=0;allowArrows=0;points=[];outlineConnect=1;" vertex="1" parent="1">
          <mxGeometry x="806" y="290" width="10" height="10" as="geometry" />
        </mxCell>
        <mxCell id="ytaTYeRnR0zXQQnVozX_-53" value="" style="shape=requiredInterface;html=1;verticalLabelPosition=bottom;sketch=0;strokeColor=#e22828;" vertex="1" parent="1">
          <mxGeometry x="770" y="230" width="10" height="60" as="geometry" />
        </mxCell>
        <mxCell id="ytaTYeRnR0zXQQnVozX_-54" value="" style="ellipse;whiteSpace=wrap;html=1;align=center;aspect=fixed;fillColor=none;strokeColor=none;resizable=0;perimeter=centerPerimeter;rotatable=0;allowArrows=0;points=[];outlineConnect=1;" vertex="1" parent="1">
          <mxGeometry x="816" y="320" width="10" height="10" as="geometry" />
        </mxCell>
        <mxCell id="ytaTYeRnR0zXQQnVozX_-57" value="Vehiculo" style="swimlane;fontStyle=1;align=center;verticalAlign=top;childLayout=stackLayout;horizontal=1;startSize=26;horizontalStack=0;resizeParent=1;resizeParentMax=0;resizeLast=0;collapsible=1;marginBottom=0;whiteSpace=wrap;html=1;" vertex="1" parent="1">
          <mxGeometry x="120" y="730" width="210" height="144" as="geometry" />
        </mxCell>
        <mxCell id="ytaTYeRnR0zXQQnVozX_-58" value="&lt;div&gt;-marca: &quot;Fiat&quot;&lt;/div&gt;-matricula: cadena&lt;div&gt;-modelo: cadena&lt;/div&gt;&lt;div&gt;-costo por km: real&lt;/div&gt;&lt;div&gt;-cantidad de dias alquiler: entero&lt;/div&gt;" style="text;strokeColor=none;fillColor=none;align=left;verticalAlign=top;spacingLeft=4;spacingRight=4;overflow=hidden;rotatable=0;points=[[0,0.5],[1,0.5]];portConstraint=eastwest;whiteSpace=wrap;html=1;" vertex="1" parent="ytaTYeRnR0zXQQnVozX_-57">
          <mxGeometry y="26" width="210" height="84" as="geometry" />
        </mxCell>
        <mxCell id="ytaTYeRnR0zXQQnVozX_-59" value="" style="line;strokeWidth=1;fillColor=none;align=left;verticalAlign=middle;spacingTop=-1;spacingLeft=3;spacingRight=3;rotatable=0;labelPosition=right;points=[];portConstraint=eastwest;strokeColor=inherit;" vertex="1" parent="ytaTYeRnR0zXQQnVozX_-57">
          <mxGeometry y="110" width="210" height="8" as="geometry" />
        </mxCell>
        <mxCell id="ytaTYeRnR0zXQQnVozX_-60" value="+crearVehiculo()&lt;div&gt;&lt;br&gt;&lt;/div&gt;" style="text;strokeColor=none;fillColor=none;align=left;verticalAlign=top;spacingLeft=4;spacingRight=4;overflow=hidden;rotatable=0;points=[[0,0.5],[1,0.5]];portConstraint=eastwest;whiteSpace=wrap;html=1;" vertex="1" parent="ytaTYeRnR0zXQQnVozX_-57">
          <mxGeometry y="118" width="210" height="26" as="geometry" />
        </mxCell>
        <mxCell id="ytaTYeRnR0zXQQnVozX_-65" value="Ruta" style="swimlane;fontStyle=1;align=center;verticalAlign=top;childLayout=stackLayout;horizontal=1;startSize=26;horizontalStack=0;resizeParent=1;resizeParentMax=0;resizeLast=0;collapsible=1;marginBottom=0;whiteSpace=wrap;html=1;" vertex="1" parent="1">
          <mxGeometry x="500" y="735" width="200" height="114" as="geometry" />
        </mxCell>
        <mxCell id="ytaTYeRnR0zXQQnVozX_-66" value="-codigo unico: cadena&lt;div&gt;-destino: cadena&lt;/div&gt;&lt;div&gt;-distancia total: entero&lt;/div&gt;&lt;div&gt;&lt;br&gt;&lt;/div&gt;" style="text;strokeColor=none;fillColor=none;align=left;verticalAlign=top;spacingLeft=4;spacingRight=4;overflow=hidden;rotatable=0;points=[[0,0.5],[1,0.5]];portConstraint=eastwest;whiteSpace=wrap;html=1;" vertex="1" parent="ytaTYeRnR0zXQQnVozX_-65">
          <mxGeometry y="26" width="200" height="54" as="geometry" />
        </mxCell>
        <mxCell id="ytaTYeRnR0zXQQnVozX_-67" value="" style="line;strokeWidth=1;fillColor=none;align=left;verticalAlign=middle;spacingTop=-1;spacingLeft=3;spacingRight=3;rotatable=0;labelPosition=right;points=[];portConstraint=eastwest;strokeColor=inherit;" vertex="1" parent="ytaTYeRnR0zXQQnVozX_-65">
          <mxGeometry y="80" width="200" height="8" as="geometry" />
        </mxCell>
        <mxCell id="ytaTYeRnR0zXQQnVozX_-68" value="+crearRuta()&lt;div&gt;&lt;br&gt;&lt;/div&gt;" style="text;strokeColor=none;fillColor=none;align=left;verticalAlign=top;spacingLeft=4;spacingRight=4;overflow=hidden;rotatable=0;points=[[0,0.5],[1,0.5]];portConstraint=eastwest;whiteSpace=wrap;html=1;" vertex="1" parent="ytaTYeRnR0zXQQnVozX_-65">
          <mxGeometry y="88" width="200" height="26" as="geometry" />
        </mxCell>
        <mxCell id="ytaTYeRnR0zXQQnVozX_-69" value="&lt;u&gt;unVehiculo&lt;/u&gt;" style="swimlane;fontStyle=0;childLayout=stackLayout;horizontal=1;startSize=26;fillColor=none;horizontalStack=0;resizeParent=1;resizeParentMax=0;resizeLast=0;collapsible=1;marginBottom=0;whiteSpace=wrap;html=1;" vertex="1" parent="1">
          <mxGeometry x="40" y="895" width="170" height="90" as="geometry" />
        </mxCell>
        <mxCell id="ytaTYeRnR0zXQQnVozX_-70" value="&lt;div&gt;F54DF&lt;/div&gt;&lt;div&gt;fiat cronos&lt;/div&gt;&lt;div&gt;4500.6&lt;/div&gt;&lt;div&gt;4&lt;/div&gt;" style="text;strokeColor=none;fillColor=none;align=left;verticalAlign=top;spacingLeft=4;spacingRight=4;overflow=hidden;rotatable=0;points=[[0,0.5],[1,0.5]];portConstraint=eastwest;whiteSpace=wrap;html=1;" vertex="1" parent="ytaTYeRnR0zXQQnVozX_-69">
          <mxGeometry y="26" width="170" height="64" as="geometry" />
        </mxCell>
        <mxCell id="ytaTYeRnR0zXQQnVozX_-71" value="&lt;u&gt;otroVehiculo&lt;/u&gt;" style="swimlane;fontStyle=0;childLayout=stackLayout;horizontal=1;startSize=26;fillColor=none;horizontalStack=0;resizeParent=1;resizeParentMax=0;resizeLast=0;collapsible=1;marginBottom=0;whiteSpace=wrap;html=1;" vertex="1" parent="1">
          <mxGeometry x="224" y="895" width="140" height="90" as="geometry" />
        </mxCell>
        <mxCell id="ytaTYeRnR0zXQQnVozX_-72" value="&lt;div&gt;F55D&lt;/div&gt;&lt;div&gt;fiat uno novo&lt;/div&gt;&lt;div&gt;5600.5&lt;/div&gt;&lt;div&gt;1&lt;/div&gt;" style="text;strokeColor=none;fillColor=none;align=left;verticalAlign=top;spacingLeft=4;spacingRight=4;overflow=hidden;rotatable=0;points=[[0,0.5],[1,0.5]];portConstraint=eastwest;whiteSpace=wrap;html=1;" vertex="1" parent="ytaTYeRnR0zXQQnVozX_-71">
          <mxGeometry y="26" width="140" height="64" as="geometry" />
        </mxCell>
        <mxCell id="ytaTYeRnR0zXQQnVozX_-73" value="" style="endArrow=classicThin;dashed=1;endFill=1;endSize=12;html=1;rounded=0;" edge="1" parent="1" target="ytaTYeRnR0zXQQnVozX_-69" source="ytaTYeRnR0zXQQnVozX_-57">
          <mxGeometry width="160" relative="1" as="geometry">
            <mxPoint x="172" y="870" as="sourcePoint" />
            <mxPoint x="460" y="720" as="targetPoint" />
          </mxGeometry>
        </mxCell>
        <mxCell id="ytaTYeRnR0zXQQnVozX_-74" value="" style="endArrow=classicThin;dashed=1;endFill=1;endSize=12;html=1;rounded=0;" edge="1" parent="1" target="ytaTYeRnR0zXQQnVozX_-71" source="ytaTYeRnR0zXQQnVozX_-57">
          <mxGeometry width="160" relative="1" as="geometry">
            <mxPoint x="259" y="870" as="sourcePoint" />
            <mxPoint x="155" y="880" as="targetPoint" />
          </mxGeometry>
        </mxCell>
        <mxCell id="ytaTYeRnR0zXQQnVozX_-75" value="&lt;u&gt;unaRuta&lt;/u&gt;" style="swimlane;fontStyle=0;childLayout=stackLayout;horizontal=1;startSize=26;fillColor=none;horizontalStack=0;resizeParent=1;resizeParentMax=0;resizeLast=0;collapsible=1;marginBottom=0;whiteSpace=wrap;html=1;" vertex="1" parent="1">
          <mxGeometry x="430" y="900" width="170" height="80" as="geometry" />
        </mxCell>
        <mxCell id="ytaTYeRnR0zXQQnVozX_-76" value="&lt;div&gt;45ds74654&lt;/div&gt;&lt;div&gt;Capital&lt;span style=&quot;white-space: pre;&quot;&gt;&#x9;&lt;/span&gt;&lt;/div&gt;&lt;div&gt;400&lt;/div&gt;" style="text;strokeColor=none;fillColor=none;align=left;verticalAlign=top;spacingLeft=4;spacingRight=4;overflow=hidden;rotatable=0;points=[[0,0.5],[1,0.5]];portConstraint=eastwest;whiteSpace=wrap;html=1;" vertex="1" parent="ytaTYeRnR0zXQQnVozX_-75">
          <mxGeometry y="26" width="170" height="54" as="geometry" />
        </mxCell>
        <mxCell id="ytaTYeRnR0zXQQnVozX_-77" value="&lt;u&gt;otraRuta&lt;/u&gt;" style="swimlane;fontStyle=0;childLayout=stackLayout;horizontal=1;startSize=26;fillColor=none;horizontalStack=0;resizeParent=1;resizeParentMax=0;resizeLast=0;collapsible=1;marginBottom=0;whiteSpace=wrap;html=1;" vertex="1" parent="1">
          <mxGeometry x="610" y="900" width="140" height="80" as="geometry" />
        </mxCell>
        <mxCell id="ytaTYeRnR0zXQQnVozX_-78" value="&lt;div&gt;4ds5s454565&lt;/div&gt;&lt;div&gt;Rivadavia&lt;span style=&quot;white-space: pre;&quot;&gt;&#x9;&lt;/span&gt;&lt;/div&gt;&lt;div&gt;500&lt;/div&gt;" style="text;strokeColor=none;fillColor=none;align=left;verticalAlign=top;spacingLeft=4;spacingRight=4;overflow=hidden;rotatable=0;points=[[0,0.5],[1,0.5]];portConstraint=eastwest;whiteSpace=wrap;html=1;" vertex="1" parent="ytaTYeRnR0zXQQnVozX_-77">
          <mxGeometry y="26" width="140" height="54" as="geometry" />
        </mxCell>
        <mxCell id="ytaTYeRnR0zXQQnVozX_-79" value="" style="endArrow=classicThin;dashed=1;endFill=1;endSize=12;html=1;rounded=0;" edge="1" parent="1" target="ytaTYeRnR0zXQQnVozX_-75" source="ytaTYeRnR0zXQQnVozX_-65">
          <mxGeometry width="160" relative="1" as="geometry">
            <mxPoint x="562" y="860" as="sourcePoint" />
            <mxPoint x="850" y="710" as="targetPoint" />
          </mxGeometry>
        </mxCell>
        <mxCell id="ytaTYeRnR0zXQQnVozX_-80" value="" style="endArrow=classicThin;dashed=1;endFill=1;endSize=12;html=1;rounded=0;" edge="1" parent="1" target="ytaTYeRnR0zXQQnVozX_-77" source="ytaTYeRnR0zXQQnVozX_-65">
          <mxGeometry width="160" relative="1" as="geometry">
            <mxPoint x="649" y="860" as="sourcePoint" />
            <mxPoint x="545" y="870" as="targetPoint" />
            <Array as="points">
              <mxPoint x="660" y="880" />
            </Array>
          </mxGeometry>
        </mxCell>
        <mxCell id="ytaTYeRnR0zXQQnVozX_-103" value="Usuario" style="shape=umlActor;verticalLabelPosition=bottom;verticalAlign=top;html=1;" vertex="1" parent="1">
          <mxGeometry x="40" y="1020" width="30" height="60" as="geometry" />
        </mxCell>
        <mxCell id="ytaTYeRnR0zXQQnVozX_-108" value="" style="html=1;points=[[0,0,0,0,5],[0,1,0,0,-5],[1,0,0,0,5],[1,1,0,0,-5]];perimeter=orthogonalPerimeter;outlineConnect=0;targetShapes=umlLifeline;portConstraint=eastwest;newEdgeStyle={&quot;curved&quot;:0,&quot;rounded&quot;:0};" vertex="1" parent="1">
          <mxGeometry x="50" y="1110" width="10" height="390" as="geometry" />
        </mxCell>
        <mxCell id="ytaTYeRnR0zXQQnVozX_-115" value="obtenerDistanciaRuta()" style="html=1;verticalAlign=bottom;endArrow=block;curved=0;rounded=0;" edge="1" parent="1">
          <mxGeometry width="80" relative="1" as="geometry">
            <mxPoint x="60" y="1130" as="sourcePoint" />
            <mxPoint x="243.99999999999977" y="1130" as="targetPoint" />
            <Array as="points">
              <mxPoint x="180" y="1130" />
            </Array>
          </mxGeometry>
        </mxCell>
        <mxCell id="ytaTYeRnR0zXQQnVozX_-120" value="" style="shape=umlLifeline;perimeter=lifelinePerimeter;whiteSpace=wrap;html=1;container=1;dropTarget=0;collapsible=0;recursiveResize=0;outlineConnect=0;portConstraint=eastwest;newEdgeStyle={&quot;curved&quot;:0,&quot;rounded&quot;:0};participant=umlEntity;" vertex="1" parent="1">
          <mxGeometry x="540" y="1030" width="40" height="450" as="geometry" />
        </mxCell>
        <mxCell id="ytaTYeRnR0zXQQnVozX_-119" value="" style="html=1;points=[[0,0,0,0,5],[0,1,0,0,-5],[1,0,0,0,5],[1,1,0,0,-5]];perimeter=orthogonalPerimeter;outlineConnect=0;targetShapes=umlLifeline;portConstraint=eastwest;newEdgeStyle={&quot;curved&quot;:0,&quot;rounded&quot;:0};" vertex="1" parent="ytaTYeRnR0zXQQnVozX_-120">
          <mxGeometry x="15" y="140" width="10" height="310" as="geometry" />
        </mxCell>
        <mxCell id="ytaTYeRnR0zXQQnVozX_-121" value="" style="shape=umlLifeline;perimeter=lifelinePerimeter;whiteSpace=wrap;html=1;container=1;dropTarget=0;collapsible=0;recursiveResize=0;outlineConnect=0;portConstraint=eastwest;newEdgeStyle={&quot;curved&quot;:0,&quot;rounded&quot;:0};participant=umlBoundary;" vertex="1" parent="1">
          <mxGeometry x="224" y="1030" width="50" height="460" as="geometry" />
        </mxCell>
        <mxCell id="ytaTYeRnR0zXQQnVozX_-113" value="" style="html=1;points=[[0,0,0,0,5],[0,1,0,0,-5],[1,0,0,0,5],[1,1,0,0,-5]];perimeter=orthogonalPerimeter;outlineConnect=0;targetShapes=umlLifeline;portConstraint=eastwest;newEdgeStyle={&quot;curved&quot;:0,&quot;rounded&quot;:0};" vertex="1" parent="ytaTYeRnR0zXQQnVozX_-121">
          <mxGeometry x="20" y="90" width="10" height="370" as="geometry" />
        </mxCell>
        <mxCell id="ytaTYeRnR0zXQQnVozX_-122" value="" style="shape=umlLifeline;perimeter=lifelinePerimeter;whiteSpace=wrap;html=1;container=1;dropTarget=0;collapsible=0;recursiveResize=0;outlineConnect=0;portConstraint=eastwest;newEdgeStyle={&quot;curved&quot;:0,&quot;rounded&quot;:0};participant=umlControl;" vertex="1" parent="1">
          <mxGeometry x="394" y="1030" width="40" height="460" as="geometry" />
        </mxCell>
        <mxCell id="ytaTYeRnR0zXQQnVozX_-112" value="" style="html=1;points=[[0,0,0,0,5],[0,1,0,0,-5],[1,0,0,0,5],[1,1,0,0,-5]];perimeter=orthogonalPerimeter;outlineConnect=0;targetShapes=umlLifeline;portConstraint=eastwest;newEdgeStyle={&quot;curved&quot;:0,&quot;rounded&quot;:0};" vertex="1" parent="ytaTYeRnR0zXQQnVozX_-122">
          <mxGeometry x="16" y="133" width="10" height="327" as="geometry" />
        </mxCell>
        <mxCell id="ytaTYeRnR0zXQQnVozX_-123" value="interfazRuta" style="text;align=center;fontStyle=1;verticalAlign=middle;spacingLeft=3;spacingRight=3;strokeColor=none;rotatable=0;points=[[0,0.5],[1,0.5]];portConstraint=eastwest;html=1;" vertex="1" parent="1">
          <mxGeometry x="209" y="1080" width="80" height="26" as="geometry" />
        </mxCell>
        <mxCell id="ytaTYeRnR0zXQQnVozX_-125" value="unaRuta" style="text;align=center;fontStyle=1;verticalAlign=middle;spacingLeft=3;spacingRight=3;strokeColor=none;rotatable=0;points=[[0,0.5],[1,0.5]];portConstraint=eastwest;html=1;" vertex="1" parent="1">
          <mxGeometry x="520" y="1080" width="80" height="26" as="geometry" />
        </mxCell>
        <mxCell id="ytaTYeRnR0zXQQnVozX_-126" value="manejadorRuta" style="text;align=center;fontStyle=1;verticalAlign=middle;spacingLeft=3;spacingRight=3;strokeColor=none;rotatable=0;points=[[0,0.5],[1,0.5]];portConstraint=eastwest;html=1;" vertex="1" parent="1">
          <mxGeometry x="374" y="1080" width="80" height="26" as="geometry" />
        </mxCell>
        <mxCell id="ytaTYeRnR0zXQQnVozX_-128" value="IngreseCodigoDeRuta" style="html=1;verticalAlign=bottom;endArrow=open;dashed=1;endSize=8;curved=0;rounded=0;" edge="1" parent="1">
          <mxGeometry relative="1" as="geometry">
            <mxPoint x="243.99999999999977" y="1160" as="sourcePoint" />
            <mxPoint x="60" y="1160" as="targetPoint" />
          </mxGeometry>
        </mxCell>
        <mxCell id="ytaTYeRnR0zXQQnVozX_-129" value="codigoDeRuta(codigo)" style="html=1;verticalAlign=bottom;endArrow=block;curved=0;rounded=0;" edge="1" parent="1" target="ytaTYeRnR0zXQQnVozX_-113">
          <mxGeometry x="0.0019" width="80" relative="1" as="geometry">
            <mxPoint x="59.99999999999977" y="1190" as="sourcePoint" />
            <mxPoint x="218.99999999999977" y="1190" as="targetPoint" />
            <Array as="points">
              <mxPoint x="176" y="1190" />
            </Array>
            <mxPoint as="offset" />
          </mxGeometry>
        </mxCell>
        <mxCell id="ytaTYeRnR0zXQQnVozX_-138" value="codigo" style="html=1;verticalAlign=bottom;endArrow=block;curved=0;rounded=0;" edge="1" parent="1" source="ytaTYeRnR0zXQQnVozX_-113" target="ytaTYeRnR0zXQQnVozX_-112">
          <mxGeometry x="0.0019" width="80" relative="1" as="geometry">
            <mxPoint x="249.99999999999977" y="1200" as="sourcePoint" />
            <mxPoint x="402" y="1200" as="targetPoint" />
            <Array as="points">
              <mxPoint x="348" y="1200" />
            </Array>
            <mxPoint as="offset" />
          </mxGeometry>
        </mxCell>
        <mxCell id="ytaTYeRnR0zXQQnVozX_-141" value="LOOP" style="shape=umlFrame;whiteSpace=wrap;html=1;pointerEvents=0;" vertex="1" parent="1">
          <mxGeometry x="405" y="1180" width="305" height="200" as="geometry" />
        </mxCell>
        <mxCell id="ytaTYeRnR0zXQQnVozX_-142" value="por cada codigo y encontrado=falso" style="text;align=center;fontStyle=1;verticalAlign=middle;spacingLeft=3;spacingRight=3;strokeColor=none;rotatable=0;points=[[0,0.5],[1,0.5]];portConstraint=eastwest;html=1;" vertex="1" parent="1">
          <mxGeometry x="517.5" y="1200" width="80" height="26" as="geometry" />
        </mxCell>
        <mxCell id="ytaTYeRnR0zXQQnVozX_-147" value="[codigo=unaRuta.obtenerCodigo()]" style="text;align=center;fontStyle=1;verticalAlign=middle;spacingLeft=3;spacingRight=3;strokeColor=none;rotatable=0;points=[[0,0.5],[1,0.5]];portConstraint=eastwest;html=1;" vertex="1" parent="1">
          <mxGeometry x="540" y="1254" width="80" height="26" as="geometry" />
        </mxCell>
        <mxCell id="ytaTYeRnR0zXQQnVozX_-148" value="ALT" style="shape=umlFrame;whiteSpace=wrap;html=1;pointerEvents=0;" vertex="1" parent="1">
          <mxGeometry x="410" y="1240" width="285" height="130" as="geometry" />
        </mxCell>
        <mxCell id="ytaTYeRnR0zXQQnVozX_-150" value="encontrado=verdadero" style="text;align=center;fontStyle=1;verticalAlign=middle;spacingLeft=3;spacingRight=3;strokeColor=none;rotatable=0;points=[[0,0.5],[1,0.5]];portConstraint=eastwest;html=1;" vertex="1" parent="1">
          <mxGeometry x="517.5" y="1280" width="80" height="26" as="geometry" />
        </mxCell>
        <mxCell id="ytaTYeRnR0zXQQnVozX_-155" value="obtenerDistanciaTotal()" style="html=1;verticalAlign=bottom;endArrow=block;curved=0;rounded=0;" edge="1" parent="1" target="ytaTYeRnR0zXQQnVozX_-119">
          <mxGeometry x="0.0019" width="80" relative="1" as="geometry">
            <mxPoint x="420" y="1330" as="sourcePoint" />
            <mxPoint x="575" y="1330" as="targetPoint" />
            <Array as="points">
              <mxPoint x="514" y="1330" />
            </Array>
            <mxPoint as="offset" />
          </mxGeometry>
        </mxCell>
        <mxCell id="ytaTYeRnR0zXQQnVozX_-156" value="distancia" style="html=1;verticalAlign=bottom;endArrow=open;dashed=1;endSize=8;curved=0;rounded=0;" edge="1" parent="1">
          <mxGeometry relative="1" as="geometry">
            <mxPoint x="555" y="1350" as="sourcePoint" />
            <mxPoint x="418.9999999999998" y="1350" as="targetPoint" />
          </mxGeometry>
        </mxCell>
        <mxCell id="ytaTYeRnR0zXQQnVozX_-157" value="distancia" style="html=1;verticalAlign=bottom;endArrow=open;dashed=1;endSize=8;curved=0;rounded=0;" edge="1" parent="1">
          <mxGeometry relative="1" as="geometry">
            <mxPoint x="394" y="1380" as="sourcePoint" />
            <mxPoint x="251.99999999999977" y="1379.9999999999998" as="targetPoint" />
          </mxGeometry>
        </mxCell>
        <mxCell id="ytaTYeRnR0zXQQnVozX_-158" value="distancia" style="html=1;verticalAlign=bottom;endArrow=open;dashed=1;endSize=8;curved=0;rounded=0;" edge="1" parent="1">
          <mxGeometry relative="1" as="geometry">
            <mxPoint x="243.99999999999977" y="1390" as="sourcePoint" />
            <mxPoint x="60" y="1390" as="targetPoint" />
          </mxGeometry>
        </mxCell>
        <mxCell id="ytaTYeRnR0zXQQnVozX_-160" value="ALT" style="shape=umlFrame;whiteSpace=wrap;html=1;pointerEvents=0;" vertex="1" parent="1">
          <mxGeometry x="407.5" y="1390" width="192.5" height="80" as="geometry" />
        </mxCell>
        <mxCell id="ytaTYeRnR0zXQQnVozX_-161" value="[encontrado==falso]" style="text;align=center;fontStyle=1;verticalAlign=middle;spacingLeft=3;spacingRight=3;strokeColor=none;rotatable=0;points=[[0,0.5],[1,0.5]];portConstraint=eastwest;html=1;" vertex="1" parent="1">
          <mxGeometry x="475" y="1417" width="80" height="26" as="geometry" />
        </mxCell>
        <mxCell id="ytaTYeRnR0zXQQnVozX_-168" value="codigo no encontrado" style="html=1;verticalAlign=bottom;endArrow=open;dashed=1;endSize=8;curved=0;rounded=0;" edge="1" parent="1" target="ytaTYeRnR0zXQQnVozX_-113">
          <mxGeometry relative="1" as="geometry">
            <mxPoint x="394" y="1470" as="sourcePoint" />
            <mxPoint x="259" y="1470" as="targetPoint" />
          </mxGeometry>
        </mxCell>
        <mxCell id="ytaTYeRnR0zXQQnVozX_-169" value="codigo no encontrado" style="html=1;verticalAlign=bottom;endArrow=open;dashed=1;endSize=8;curved=0;rounded=0;" edge="1" parent="1" source="ytaTYeRnR0zXQQnVozX_-113">
          <mxGeometry relative="1" as="geometry">
            <mxPoint x="200" y="1480" as="sourcePoint" />
            <mxPoint x="60" y="1480" as="targetPoint" />
          </mxGeometry>
        </mxCell>
      </root>
    </mxGraphModel>
  </diagram>
</mxfile>
